<svg width="24" height="24" viewBox="0 0 24 24" fill="none" xmlns="http://www.w3.org/2000/svg">
<path d="M23.988 5.4564C23.9768 4.94163 23.9356 4.42795 23.8644 3.918C23.7784 3.46448 23.6319 3.02455 23.4288 2.61C22.9848 1.73301 22.2727 1.02048 21.396 0.576C20.984 0.374068 20.547 0.227981 20.0964 0.1416C19.5825 0.0691598 19.0648 0.0270867 18.546 0.0156C18.3264 0.00720001 18.042 0.00360002 17.91 0.00360002L6.0924 0C5.9604 0 5.676 0.00359999 5.4564 0.012C4.94163 0.0231605 4.42795 0.064431 3.918 0.1356C3.46448 0.22164 3.02455 0.368147 2.61 0.5712C1.73301 1.01517 1.02048 1.72727 0.576 2.604C0.374068 3.01596 0.227981 3.45301 0.1416 3.9036C0.0687582 4.41745 0.0262845 4.93515 0.0144001 5.454C0.0072001 5.6736 0.00240011 5.958 0.00240011 6.09L0 17.9076C0 18.0396 0.00359999 18.324 0.012 18.5436C0.0231605 19.0584 0.064431 19.572 0.1356 20.082C0.22164 20.5355 0.368147 20.9754 0.5712 21.39C1.01517 22.267 1.72727 22.9795 2.604 23.424C3.01596 23.6259 3.45301 23.772 3.9036 23.8584C4.41747 23.9308 4.93517 23.9729 5.454 23.9844C5.6736 23.9928 5.958 23.9964 6.09 23.9964L17.9076 23.9988C18.0396 23.9988 18.324 23.9952 18.5436 23.9868C19.0584 23.9756 19.5721 23.9344 20.082 23.8632C20.5355 23.7772 20.9754 23.6307 21.39 23.4276C22.2674 22.9838 22.9804 22.2717 23.4252 21.3948C23.6271 20.9828 23.7732 20.5458 23.8596 20.0952C23.9324 19.5813 23.9749 19.0637 23.9868 18.5448C23.994 18.3252 23.9988 18.0408 23.9988 17.9088L24 6.0924C24 5.9604 23.9964 5.676 23.988 5.4564ZM12.2604 20.3484H12.2568C10.8282 20.3494 9.42232 19.9913 8.1684 19.3068L3.6324 20.496L4.8468 16.0644C3.90654 14.4328 3.53085 12.5365 3.77796 10.6697C4.02507 8.80279 4.88119 7.0696 6.21357 5.7388C7.54595 4.408 9.28016 3.55395 11.1473 3.30905C13.0145 3.06416 14.9103 3.44212 16.5408 4.38431C18.1713 5.32651 19.4454 6.78031 20.1656 8.52031C20.8858 10.2603 21.0118 12.1893 20.5241 14.0082C20.0364 15.8271 18.9622 17.4343 17.4681 18.5806C15.9741 19.7269 14.1436 20.3483 12.2604 20.3484Z" fill="#F0EDDE"/>
<path d="M12.264 4.68119C10.9933 4.68082 9.74572 5.02088 8.65097 5.66602C7.55622 6.31115 6.6543 7.23779 6.03899 8.34958C5.42369 9.46137 5.11747 10.7177 5.15219 11.9879C5.18691 13.2581 5.5613 14.4959 6.23642 15.5724L6.40562 15.8412L5.68682 18.4644L8.37842 17.7588L8.63762 17.9124C9.7329 18.5623 10.9832 18.9047 12.2568 18.9036H12.2604C14.1466 18.9039 15.9556 18.1549 17.2896 16.8214C18.6235 15.4879 19.3731 13.6792 19.3734 11.793C19.3737 9.90683 18.6248 8.09779 17.2913 6.76384C15.9578 5.42989 14.149 4.68031 12.2628 4.67999L12.264 4.68119ZM16.4448 14.8452C16.2877 15.1051 16.0785 15.3297 15.8302 15.5046C15.5819 15.6796 15.3001 15.8011 15.0024 15.8616C14.5532 15.9388 14.0922 15.91 13.656 15.7776C13.2422 15.6493 12.8356 15.4987 12.438 15.3264C10.9617 14.5855 9.70333 13.4735 8.78641 12.0996C8.28604 11.4637 7.9824 10.6954 7.91282 9.88919C7.90727 9.55648 7.97098 9.22625 8.09988 8.91948C8.22879 8.6127 8.42009 8.33608 8.66162 8.10719C8.73328 8.02598 8.82084 7.96034 8.91888 7.91431C9.01692 7.86828 9.12336 7.84285 9.23162 7.83959C9.37322 7.83959 9.51602 7.83959 9.64082 7.84679C9.77282 7.85279 9.94802 7.79639 10.1208 8.21399C10.3008 8.64119 10.728 9.69359 10.7808 9.80039C10.8145 9.85646 10.8338 9.92 10.8369 9.98533C10.8401 10.0507 10.827 10.1158 10.7988 10.1748C10.7452 10.3033 10.6733 10.4233 10.5852 10.5312C10.4772 10.656 10.3608 10.8096 10.2648 10.9056C10.1568 11.0124 10.0464 11.1276 10.17 11.3412C10.4915 11.8905 10.8922 12.3895 11.3592 12.822C11.8669 13.2722 12.4487 13.6311 13.0788 13.8828C13.2924 13.9908 13.4172 13.9716 13.542 13.8288C13.6668 13.686 14.076 13.2048 14.2188 12.9912C14.3616 12.7776 14.5032 12.8136 14.6988 12.8844C14.8944 12.9552 15.9468 13.4724 16.1604 13.5804C16.374 13.6884 16.5168 13.74 16.5696 13.8288C16.6273 14.1725 16.5839 14.5256 16.4448 14.8452Z" fill="#F0EDDE"/>
</svg>
